<svg xmlns="http://www.w3.org/2000/svg" width="411.879" height="351.357" viewBox="0 0 411.879 351.357">
  <path id="Path_99" data-name="Path 99" d="M107.58,115.909q-30.47,0-50.922-12.313A78.6,78.6,0,0,1,25.771,69.578q-10.435-21.7-10.435-50.5V-134.109q0-29.635,9.809-51.965a75.434,75.434,0,0,1,30.261-34.852q20.452-12.522,52.174-12.522t51.965,12.522A75.794,75.794,0,0,1,189.6-186.074q9.809,22.33,9.809,51.965V19.074q0,28.383-10.435,50.3A78.36,78.36,0,0,1,158.084,103.6Q137.632,115.909,107.58,115.909Zm0-62.191q10.017,0,14.4-6.47a33.61,33.61,0,0,0,5.426-15.026A124.732,124.732,0,0,0,128.449,17.4V-132.439q0-7.1-.835-16.07A35.135,35.135,0,0,0,122.4-164.37q-4.383-6.887-14.817-6.887T92.762-164.37a35.135,35.135,0,0,0-5.217,15.861q-.835,8.974-.835,16.07V17.4a104.307,104.307,0,0,0,1.252,14.817A35.579,35.579,0,0,0,93.6,47.248Q97.98,53.717,107.58,53.717Zm131.9,55.93V60.4L320.449-63.987q9.183-13.774,17.322-26.713A155.979,155.979,0,0,0,351.128-117a76.181,76.181,0,0,0,5.217-27.965q0-14.609-5.844-21.7t-15.861-7.1q-11.27,0-17.53,6.261t-8.557,16.7a109.1,109.1,0,0,0-2.3,23.374v16.7H238.641v-17.948q0-30.052,9.6-53.635a78.487,78.487,0,0,1,30.47-37.148q20.87-13.565,54.678-13.565,45.5,0,68.661,23.583t23.165,65.739a108.873,108.873,0,0,1-6.47,37.983,173.22,173.22,0,0,1-17.113,34.017q-10.643,16.487-22.748,34.435L317.11,54.97h98.922v54.678Z" transform="translate(-14.336 234.448)" fill="none" stroke="#fff" stroke-width="2"/>
</svg>
